<svg width="40" height="40" viewBox="0 0 40 40" fill="none" xmlns="http://www.w3.org/2000/svg">
  <!-- Manufacturing gear/industry icon -->
  <circle cx="20" cy="20" r="8" fill="#475569" stroke="#334155" stroke-width="2"/>
  <circle cx="20" cy="20" r="4" fill="#ffffff"/>
  
  <!-- Gear teeth -->
  <rect x="18" y="8" width="4" height="4" fill="#475569" rx="1"/>
  <rect x="18" y="28" width="4" height="4" fill="#475569" rx="1"/>
  <rect x="8" y="18" width="4" height="4" fill="#475569" rx="1"/>
  <rect x="28" y="18" width="4" height="4" fill="#475569" rx="1"/>
  
  <!-- Diagonal teeth -->
  <rect x="24.5" y="9.5" width="4" height="4" fill="#475569" rx="1" transform="rotate(45 26.5 11.5)"/>
  <rect x="11.5" y="26.5" width="4" height="4" fill="#475569" rx="1" transform="rotate(45 13.5 28.5)"/>
  <rect x="11.5" y="9.5" width="4" height="4" fill="#475569" rx="1" transform="rotate(-45 13.5 11.5)"/>
  <rect x="24.5" y="26.5" width="4" height="4" fill="#475569" rx="1" transform="rotate(-45 26.5 28.5)"/>
</svg>
